<svg width="22" height="22" viewBox="0 0 22 22" fill="none" xmlns="http://www.w3.org/2000/svg">
<path d="M11 18C12.1 18 13 18.9 13 20C13 21.1 12.1 22 11 22C9.9 22 9 21.1 9 20C9 18.9 9.9 18 11 18ZM11 0C12.1 0 13 0.9 13 2C13 3.1 12.1 4 11 4C9.9 4 9 3.1 9 2C9 0.9 9.9 0 11 0ZM5 15C6.1 15 7 15.9 7 17C7 18.1 6.1 19 5 19C3.9 19 3 18.1 3 17C3 15.9 3.9 15 5 15ZM2 9C3.1 9 4 9.9 4 11C4 12.1 3.1 13 2 13C0.9 13 0 12.1 0 11C0 9.9 0.9 9 2 9ZM5 3C6.1 3 7 3.9 7 5C7 6.1 6.1 7 5 7C3.9 7 3 6.1 3 5C3 3.9 3.9 3 5 3ZM17 15C18.1 15 19 15.9 19 17C19 18.1 18.1 19 17 19C15.9 19 15 18.1 15 17C15 15.9 15.9 15 17 15ZM20 9C21.1 9 22 9.9 22 11C22 12.1 21.1 13 20 13C18.9 13 18 12.1 18 11C18 9.9 18.9 9 20 9ZM17 3C18.1 3 19 3.9 19 5C19 6.1 18.1 7 17 7C15.9 7 15 6.1 15 5C15 3.9 15.9 3 17 3Z" fill="white"/>
</svg>
